<?xml version="1.0" encoding="UTF-8"?>
<svg id="Layer_2" data-name="Layer 2" xmlns="http://www.w3.org/2000/svg" viewBox="0 0 237.97 98.05">
  <defs>
    <style>
      .cls-1 {
        fill: #6c6c6c;
      }

      .cls-2 {
        fill: #5d7f9c;
      }
    </style>
  </defs>
  <g id="Layer_1-2" data-name="Layer 1">
    <g>
      <circle class="cls-2" cx="219.3" cy="25.41" r="3.08"/>
      <circle class="cls-2" cx="227.1" cy="25.41" r="3.08"/>
      <circle class="cls-2" cx="234.89" cy="25.41" r="3.08"/>
      <circle class="cls-2" cx="211.6" cy="25.41" r="3.08"/>
      <circle class="cls-2" cx="203.99" cy="25.41" r="2.57"/>
      <circle class="cls-2" cx="196.19" cy="25.41" r="2.05"/>
      <circle class="cls-2" cx="188.28" cy="25.41" r="2.05"/>
      <circle class="cls-2" cx="180.87" cy="25.41" r="1.54"/>
      <circle class="cls-2" cx="219.3" cy="17.8" r="3.08"/>
      <circle class="cls-2" cx="227.1" cy="17.8" r="3.08"/>
      <circle class="cls-2" cx="234.89" cy="17.8" r="2.57"/>
      <circle class="cls-2" cx="211.6" cy="17.8" r="3.08"/>
      <circle class="cls-2" cx="211.6" cy="10.18" r="3.08"/>
      <circle class="cls-2" cx="203.99" cy="17.8" r="2.57"/>
      <circle class="cls-2" cx="203.99" cy="10.18" r="2.57"/>
      <circle class="cls-2" cx="196.19" cy="17.8" r="2.05"/>
      <circle class="cls-2" cx="196.19" cy="10.18" r="2.05"/>
      <circle class="cls-2" cx="188.28" cy="17.8" r="2.05"/>
      <circle class="cls-2" cx="180.87" cy="17.8" r="1.54"/>
      <circle class="cls-2" cx="188.28" cy="10.18" r="1.54"/>
      <circle class="cls-2" cx="219.3" cy="33.02" r="3.08"/>
      <circle class="cls-2" cx="227.1" cy="33.02" r="3.08"/>
      <circle class="cls-2" cx="234.89" cy="33.02" r="3.08"/>
      <circle class="cls-2" cx="211.6" cy="33.02" r="3.08"/>
      <circle class="cls-2" cx="203.99" cy="33.02" r="2.57"/>
      <circle class="cls-2" cx="196.19" cy="33.02" r="2.05"/>
      <circle class="cls-2" cx="188.28" cy="33.02" r="2.05"/>
      <circle class="cls-2" cx="180.87" cy="33.02" r="1.54"/>
      <circle class="cls-2" cx="219.3" cy="40.64" r="3.08"/>
      <circle class="cls-2" cx="227.1" cy="40.64" r="3.08"/>
      <circle class="cls-2" cx="234.89" cy="40.64" r="2.57"/>
      <circle class="cls-2" cx="211.6" cy="40.64" r="3.08"/>
      <circle class="cls-2" cx="203.99" cy="40.64" r="2.57"/>
      <circle class="cls-2" cx="196.19" cy="40.64" r="2.05"/>
      <circle class="cls-2" cx="188.28" cy="40.64" r="2.05"/>
      <circle class="cls-2" cx="180.87" cy="40.64" r="1.54"/>
      <circle class="cls-2" cx="219.3" cy="48.25" r="3.08"/>
      <circle class="cls-2" cx="227.1" cy="48.25" r="2.57"/>
      <circle class="cls-2" cx="211.6" cy="48.25" r="3.08"/>
      <circle class="cls-2" cx="203.99" cy="48.25" r="2.57"/>
      <circle class="cls-2" cx="196.19" cy="48.25" r="2.05"/>
      <circle class="cls-2" cx="188.28" cy="48.25" r="2.05"/>
      <circle class="cls-2" cx="219.3" cy="55.86" r="2.57"/>
      <circle class="cls-2" cx="211.6" cy="55.86" r="2.57"/>
      <circle class="cls-2" cx="203.99" cy="55.86" r="2.57"/>
      <circle class="cls-2" cx="196.19" cy="55.86" r="2.05"/>
      <circle class="cls-2" cx="211.6" cy="2.57" r="2.57"/>
      <circle class="cls-2" cx="203.99" cy="2.57" r="2.57"/>
      <circle class="cls-2" cx="196.19" cy="2.57" r="2.05"/>
      <circle class="cls-2" cx="219.3" cy="10.18" r="3.08"/>
      <circle class="cls-2" cx="219.3" cy="2.57" r="2.57"/>
      <circle class="cls-2" cx="227.1" cy="10.18" r="2.57"/>
      <g>
        <path class="cls-1" d="m0,52.9h15.37c14.4,0,21,8.05,21,22.39s-6.6,22.27-21,22.27H0v-44.66Zm14.59,42.24c10.47,0,14.71-5.21,14.71-19.97s-4.24-19.85-14.71-19.85h-7.93v39.82h7.93Z"/>
        <path class="cls-1" d="m52.41,52.9h6.11l16.4,44.66h-7.02l-4.96-13.62h-19.13l-4.9,13.62h-2.72l16.22-44.66Zm-7.69,28.63h17.31l-8.71-23.85-8.59,23.85Z"/>
        <path class="cls-1" d="m77.59,52.9h15.37c14.4,0,21,8.05,21,22.39s-6.6,22.27-21,22.27h-15.37v-44.66Zm14.59,42.24c10.47,0,14.71-5.21,14.71-19.97s-4.24-19.85-14.71-19.85h-7.93v39.82h7.93Z"/>
        <path class="cls-1" d="m117.1,75.29c0-15.86,7.81-22.76,21.79-22.76,3.39,0,6.96.42,10.41,1.15v2.18c-2.78-.48-5.69-.79-8.53-.79-12.47,0-16.58,5.21-16.58,20.09s4.12,20.21,16.58,20.21c3.03,0,5.69-.36,8.53-.79v2.18c-3.51.73-6.9,1.15-10.41,1.15-13.98,0-21.79-6.78-21.79-22.64Z"/>
        <path class="cls-1" d="m149.9,75.29c0-14.71,7.5-22.88,20.09-22.88s20.09,8.17,20.09,22.88-7.44,22.76-20.09,22.76-20.09-8.11-20.09-22.76Zm33.11-.12c0-14.65-3.93-20.34-13.01-20.34s-13.01,5.81-13.01,20.34,3.93,20.46,13.01,20.46,13.01-5.81,13.01-20.46Z"/>
      </g>
    </g>
  </g>
</svg>