<?xml version="1.0" encoding="UTF-8"?>
<svg id="Layer_2" data-name="Layer 2" xmlns="http://www.w3.org/2000/svg" viewBox="0 0 320.47 303">
  <defs>
    <style>
      .cls-1 {
        fill: #ccc;
      }
    </style>
  </defs>
  <g id="Layer_1-2" data-name="Layer 1">
    <g>
      <path class="cls-1" d="m4,0c0,1.1-.89,2-2,2S0,1.1,0,0h4Z"/>
      <path class="cls-1" d="m22.62,0c0,1.27-1.03,2.29-2.3,2.29s-2.29-1.02-2.29-2.29h4.59Z"/>
      <path class="cls-1" d="m41.23,0c0,1.43-1.15,2.59-2.58,2.59s-2.59-1.16-2.59-2.59h5.17Z"/>
      <path class="cls-1" d="m59.85,0c0,1.59-1.29,2.88-2.88,2.88s-2.88-1.29-2.88-2.88h5.76Z"/>
      <path class="cls-1" d="m78.47,0c0,1.75-1.43,3.17-3.18,3.17s-3.18-1.42-3.18-3.17h6.36Z"/>
      <path class="cls-1" d="m97.08,0c0,1.91-1.55,3.47-3.47,3.47s-3.47-1.56-3.47-3.47h6.94Z"/>
      <path class="cls-1" d="m115.7,0c0,2.08-1.69,3.76-3.77,3.76s-3.76-1.68-3.76-3.76h7.53Z"/>
      <path class="cls-1" d="m134.31,0c0,2.24-1.81,4.06-4.05,4.06s-4.06-1.82-4.06-4.06h8.11Z"/>
      <path class="cls-1" d="m152.93,0c0,2.4-1.95,4.35-4.35,4.35s-4.36-1.95-4.36-4.35h8.71Z"/>
      <path class="cls-1" d="m171.55,0c0,2.56-2.08,4.65-4.65,4.65s-4.65-2.09-4.65-4.65h9.3Z"/>
      <path class="cls-1" d="m190.16,0c0,2.73-2.21,4.94-4.94,4.94s-4.94-2.21-4.94-4.94h9.88Z"/>
      <path class="cls-1" d="m208.78,0c0,2.89-2.35,5.23-5.24,5.23s-5.23-2.34-5.23-5.23h10.47Z"/>
      <path class="cls-1" d="m227.39,0c0,3.05-2.47,5.53-5.53,5.53s-5.52-2.48-5.52-5.53h11.05Z"/>
      <path class="cls-1" d="m246.01,0c0,3.21-2.61,5.82-5.82,5.82s-5.83-2.61-5.83-5.82h11.65Z"/>
      <path class="cls-1" d="m264.63,0c0,3.38-2.74,6.12-6.12,6.12s-6.12-2.74-6.12-6.12h12.24Z"/>
      <path class="cls-1" d="m283.24,0c0,3.54-2.87,6.41-6.41,6.41s-6.41-2.87-6.41-6.41h12.82Z"/>
      <path class="cls-1" d="m301.86,0c0,3.7-3,6.7-6.71,6.7s-6.7-3-6.7-6.7h13.41Z"/>
      <path class="cls-1" d="m320.47,0c0,3.86-3.13,7-7,7s-7-3.14-7-7h14Z"/>
    </g>
    <g>
      <circle class="cls-1" cx="2" cy="17.82" r="2"/>
      <circle class="cls-1" cx="20.32" cy="17.82" r="2.29"/>
      <circle class="cls-1" cx="38.65" cy="17.82" r="2.59"/>
      <circle class="cls-1" cx="56.97" cy="17.82" r="2.88"/>
      <circle class="cls-1" cx="75.29" cy="17.82" r="3.18"/>
      <circle class="cls-1" cx="93.61" cy="17.82" r="3.47"/>
      <circle class="cls-1" cx="111.93" cy="17.82" r="3.76"/>
      <circle class="cls-1" cx="130.26" cy="17.82" r="4.06"/>
      <circle class="cls-1" cx="148.58" cy="17.82" r="4.35"/>
      <circle class="cls-1" cx="166.9" cy="17.82" r="4.65"/>
      <circle class="cls-1" cx="185.22" cy="17.82" r="4.94"/>
      <circle class="cls-1" cx="203.54" cy="17.82" r="5.24"/>
      <circle class="cls-1" cx="221.86" cy="17.82" r="5.53"/>
      <circle class="cls-1" cx="240.19" cy="17.82" r="5.82"/>
      <circle class="cls-1" cx="258.51" cy="17.82" r="6.12"/>
      <circle class="cls-1" cx="276.83" cy="17.82" r="6.41"/>
      <circle class="cls-1" cx="295.15" cy="17.82" r="6.71"/>
      <circle class="cls-1" cx="313.47" cy="17.82" r="7"/>
    </g>
    <g>
      <circle class="cls-1" cx="2" cy="35.65" r="2"/>
      <circle class="cls-1" cx="20.32" cy="35.65" r="2.29"/>
      <circle class="cls-1" cx="38.65" cy="35.65" r="2.59"/>
      <circle class="cls-1" cx="56.97" cy="35.65" r="2.88"/>
      <circle class="cls-1" cx="75.29" cy="35.65" r="3.18"/>
      <circle class="cls-1" cx="93.61" cy="35.65" r="3.47"/>
      <circle class="cls-1" cx="111.93" cy="35.65" r="3.76"/>
      <circle class="cls-1" cx="130.26" cy="35.65" r="4.06"/>
      <circle class="cls-1" cx="148.58" cy="35.65" r="4.35"/>
      <circle class="cls-1" cx="166.9" cy="35.65" r="4.65"/>
      <circle class="cls-1" cx="185.22" cy="35.65" r="4.94"/>
      <circle class="cls-1" cx="203.54" cy="35.65" r="5.24"/>
      <circle class="cls-1" cx="221.86" cy="35.65" r="5.53"/>
      <circle class="cls-1" cx="240.19" cy="35.65" r="5.82"/>
      <circle class="cls-1" cx="258.51" cy="35.65" r="6.12"/>
      <circle class="cls-1" cx="276.83" cy="35.65" r="6.41"/>
      <circle class="cls-1" cx="295.15" cy="35.65" r="6.71"/>
      <circle class="cls-1" cx="313.47" cy="35.65" r="7"/>
    </g>
    <g>
      <circle class="cls-1" cx="2" cy="53.47" r="2"/>
      <circle class="cls-1" cx="20.32" cy="53.47" r="2.29"/>
      <circle class="cls-1" cx="38.65" cy="53.47" r="2.59"/>
      <circle class="cls-1" cx="56.97" cy="53.47" r="2.88"/>
      <circle class="cls-1" cx="75.29" cy="53.47" r="3.18"/>
      <circle class="cls-1" cx="93.61" cy="53.47" r="3.47"/>
      <circle class="cls-1" cx="111.93" cy="53.47" r="3.76"/>
      <circle class="cls-1" cx="130.26" cy="53.47" r="4.06"/>
      <circle class="cls-1" cx="148.58" cy="53.47" r="4.35"/>
      <circle class="cls-1" cx="166.9" cy="53.47" r="4.65"/>
      <circle class="cls-1" cx="185.22" cy="53.47" r="4.94"/>
      <circle class="cls-1" cx="203.54" cy="53.47" r="5.24"/>
      <circle class="cls-1" cx="221.86" cy="53.47" r="5.53"/>
      <circle class="cls-1" cx="240.19" cy="53.47" r="5.82"/>
      <circle class="cls-1" cx="258.51" cy="53.47" r="6.12"/>
      <circle class="cls-1" cx="276.83" cy="53.47" r="6.41"/>
      <circle class="cls-1" cx="295.15" cy="53.47" r="6.71"/>
      <circle class="cls-1" cx="313.47" cy="53.47" r="7"/>
    </g>
    <g>
      <circle class="cls-1" cx="2" cy="71.29" r="2"/>
      <circle class="cls-1" cx="20.32" cy="71.29" r="2.29"/>
      <circle class="cls-1" cx="38.65" cy="71.29" r="2.59"/>
      <circle class="cls-1" cx="56.97" cy="71.29" r="2.88"/>
      <circle class="cls-1" cx="75.29" cy="71.29" r="3.18"/>
      <circle class="cls-1" cx="93.61" cy="71.29" r="3.47"/>
      <circle class="cls-1" cx="111.93" cy="71.29" r="3.76"/>
      <circle class="cls-1" cx="130.26" cy="71.29" r="4.06"/>
      <circle class="cls-1" cx="148.58" cy="71.29" r="4.35"/>
      <circle class="cls-1" cx="166.9" cy="71.29" r="4.65"/>
      <circle class="cls-1" cx="185.22" cy="71.29" r="4.94"/>
      <circle class="cls-1" cx="203.54" cy="71.29" r="5.24"/>
      <circle class="cls-1" cx="221.86" cy="71.29" r="5.53"/>
      <circle class="cls-1" cx="240.19" cy="71.29" r="5.82"/>
      <circle class="cls-1" cx="258.51" cy="71.29" r="6.12"/>
      <circle class="cls-1" cx="276.83" cy="71.29" r="6.41"/>
      <circle class="cls-1" cx="295.15" cy="71.29" r="6.71"/>
      <circle class="cls-1" cx="313.47" cy="71.29" r="7"/>
    </g>
    <g>
      <circle class="cls-1" cx="2" cy="89.12" r="2"/>
      <circle class="cls-1" cx="20.32" cy="89.12" r="2.29"/>
      <circle class="cls-1" cx="38.65" cy="89.12" r="2.59"/>
      <circle class="cls-1" cx="56.97" cy="89.12" r="2.88"/>
      <circle class="cls-1" cx="75.29" cy="89.12" r="3.18"/>
      <circle class="cls-1" cx="93.61" cy="89.12" r="3.47"/>
      <circle class="cls-1" cx="111.93" cy="89.12" r="3.76"/>
      <circle class="cls-1" cx="130.26" cy="89.12" r="4.06"/>
      <circle class="cls-1" cx="148.58" cy="89.12" r="4.35"/>
      <circle class="cls-1" cx="166.9" cy="89.12" r="4.65"/>
      <circle class="cls-1" cx="185.22" cy="89.12" r="4.94"/>
      <circle class="cls-1" cx="203.54" cy="89.12" r="5.24"/>
      <circle class="cls-1" cx="221.86" cy="89.12" r="5.53"/>
      <circle class="cls-1" cx="240.19" cy="89.12" r="5.82"/>
      <circle class="cls-1" cx="258.51" cy="89.12" r="6.12"/>
      <circle class="cls-1" cx="276.83" cy="89.12" r="6.41"/>
      <circle class="cls-1" cx="295.15" cy="89.12" r="6.71"/>
      <circle class="cls-1" cx="313.47" cy="89.12" r="7"/>
    </g>
    <g>
      <circle class="cls-1" cx="2" cy="106.94" r="2"/>
      <circle class="cls-1" cx="20.32" cy="106.94" r="2.29"/>
      <circle class="cls-1" cx="38.65" cy="106.94" r="2.59"/>
      <circle class="cls-1" cx="56.97" cy="106.94" r="2.88"/>
      <circle class="cls-1" cx="75.29" cy="106.94" r="3.18"/>
      <circle class="cls-1" cx="93.61" cy="106.94" r="3.47"/>
      <circle class="cls-1" cx="111.93" cy="106.94" r="3.76"/>
      <circle class="cls-1" cx="130.26" cy="106.94" r="4.06"/>
      <circle class="cls-1" cx="148.58" cy="106.94" r="4.35"/>
      <circle class="cls-1" cx="166.9" cy="106.94" r="4.65"/>
      <circle class="cls-1" cx="185.22" cy="106.94" r="4.94"/>
      <circle class="cls-1" cx="203.54" cy="106.94" r="5.24"/>
      <circle class="cls-1" cx="221.86" cy="106.94" r="5.53"/>
      <circle class="cls-1" cx="240.19" cy="106.94" r="5.82"/>
      <circle class="cls-1" cx="258.51" cy="106.94" r="6.12"/>
      <circle class="cls-1" cx="276.83" cy="106.94" r="6.41"/>
      <circle class="cls-1" cx="295.15" cy="106.94" r="6.71"/>
      <circle class="cls-1" cx="313.47" cy="106.94" r="7"/>
    </g>
    <g>
      <circle class="cls-1" cx="2" cy="124.76" r="2"/>
      <circle class="cls-1" cx="20.32" cy="124.76" r="2.29"/>
      <circle class="cls-1" cx="38.65" cy="124.76" r="2.59"/>
      <circle class="cls-1" cx="56.97" cy="124.76" r="2.88"/>
      <circle class="cls-1" cx="75.29" cy="124.76" r="3.18"/>
      <circle class="cls-1" cx="93.61" cy="124.76" r="3.47"/>
      <circle class="cls-1" cx="111.93" cy="124.76" r="3.76"/>
      <circle class="cls-1" cx="130.26" cy="124.76" r="4.06"/>
      <circle class="cls-1" cx="148.58" cy="124.76" r="4.35"/>
      <circle class="cls-1" cx="166.9" cy="124.76" r="4.65"/>
      <circle class="cls-1" cx="185.22" cy="124.76" r="4.94"/>
      <circle class="cls-1" cx="203.54" cy="124.76" r="5.24"/>
      <circle class="cls-1" cx="221.86" cy="124.76" r="5.53"/>
      <circle class="cls-1" cx="240.19" cy="124.76" r="5.82"/>
      <circle class="cls-1" cx="258.51" cy="124.76" r="6.12"/>
      <circle class="cls-1" cx="276.83" cy="124.76" r="6.41"/>
      <circle class="cls-1" cx="295.15" cy="124.76" r="6.71"/>
      <circle class="cls-1" cx="313.47" cy="124.76" r="7"/>
    </g>
    <g>
      <circle class="cls-1" cx="2" cy="142.59" r="2"/>
      <circle class="cls-1" cx="20.32" cy="142.59" r="2.29"/>
      <circle class="cls-1" cx="38.65" cy="142.59" r="2.59"/>
      <circle class="cls-1" cx="56.97" cy="142.59" r="2.88"/>
      <circle class="cls-1" cx="75.29" cy="142.59" r="3.18"/>
      <circle class="cls-1" cx="93.61" cy="142.59" r="3.47"/>
      <circle class="cls-1" cx="111.93" cy="142.59" r="3.76"/>
      <circle class="cls-1" cx="130.26" cy="142.59" r="4.06"/>
      <circle class="cls-1" cx="148.58" cy="142.59" r="4.35"/>
      <circle class="cls-1" cx="166.9" cy="142.59" r="4.65"/>
      <circle class="cls-1" cx="185.22" cy="142.59" r="4.94"/>
      <circle class="cls-1" cx="203.54" cy="142.59" r="5.24"/>
      <circle class="cls-1" cx="221.86" cy="142.59" r="5.53"/>
      <circle class="cls-1" cx="240.19" cy="142.59" r="5.82"/>
      <circle class="cls-1" cx="258.51" cy="142.59" r="6.12"/>
      <circle class="cls-1" cx="276.83" cy="142.59" r="6.41"/>
      <circle class="cls-1" cx="295.15" cy="142.59" r="6.71"/>
      <circle class="cls-1" cx="313.47" cy="142.59" r="7"/>
    </g>
    <g>
      <circle class="cls-1" cx="2" cy="160.41" r="2"/>
      <circle class="cls-1" cx="20.32" cy="160.41" r="2.29"/>
      <circle class="cls-1" cx="38.65" cy="160.41" r="2.59"/>
      <circle class="cls-1" cx="56.97" cy="160.41" r="2.88"/>
      <circle class="cls-1" cx="75.29" cy="160.41" r="3.18"/>
      <circle class="cls-1" cx="93.61" cy="160.41" r="3.47"/>
      <circle class="cls-1" cx="111.93" cy="160.41" r="3.76"/>
      <circle class="cls-1" cx="130.26" cy="160.41" r="4.06"/>
      <circle class="cls-1" cx="148.58" cy="160.41" r="4.35"/>
      <circle class="cls-1" cx="166.9" cy="160.41" r="4.65"/>
      <circle class="cls-1" cx="185.22" cy="160.41" r="4.94"/>
      <circle class="cls-1" cx="203.54" cy="160.41" r="5.24"/>
      <circle class="cls-1" cx="221.86" cy="160.41" r="5.53"/>
      <circle class="cls-1" cx="240.19" cy="160.41" r="5.82"/>
      <circle class="cls-1" cx="258.51" cy="160.41" r="6.12"/>
      <circle class="cls-1" cx="276.83" cy="160.41" r="6.41"/>
      <circle class="cls-1" cx="295.15" cy="160.41" r="6.71"/>
      <circle class="cls-1" cx="313.47" cy="160.41" r="7"/>
    </g>
    <g>
      <circle class="cls-1" cx="2" cy="178.23" r="2"/>
      <circle class="cls-1" cx="20.32" cy="178.23" r="2.29"/>
      <circle class="cls-1" cx="38.65" cy="178.23" r="2.59"/>
      <circle class="cls-1" cx="56.97" cy="178.23" r="2.88"/>
      <circle class="cls-1" cx="75.29" cy="178.23" r="3.18"/>
      <circle class="cls-1" cx="93.61" cy="178.23" r="3.47"/>
      <circle class="cls-1" cx="111.93" cy="178.23" r="3.76"/>
      <circle class="cls-1" cx="130.26" cy="178.23" r="4.06"/>
      <circle class="cls-1" cx="148.58" cy="178.23" r="4.35"/>
      <circle class="cls-1" cx="166.9" cy="178.23" r="4.65"/>
      <circle class="cls-1" cx="185.22" cy="178.23" r="4.94"/>
      <circle class="cls-1" cx="203.54" cy="178.23" r="5.24"/>
      <circle class="cls-1" cx="221.86" cy="178.23" r="5.53"/>
      <circle class="cls-1" cx="240.19" cy="178.23" r="5.82"/>
      <circle class="cls-1" cx="258.51" cy="178.23" r="6.12"/>
      <circle class="cls-1" cx="276.83" cy="178.23" r="6.41"/>
      <circle class="cls-1" cx="295.15" cy="178.23" r="6.71"/>
      <circle class="cls-1" cx="313.47" cy="178.23" r="7"/>
    </g>
    <g>
      <circle class="cls-1" cx="2" cy="196.06" r="2"/>
      <circle class="cls-1" cx="20.32" cy="196.06" r="2.29"/>
      <circle class="cls-1" cx="38.65" cy="196.06" r="2.59"/>
      <circle class="cls-1" cx="56.97" cy="196.06" r="2.88"/>
      <circle class="cls-1" cx="75.29" cy="196.06" r="3.18"/>
      <circle class="cls-1" cx="93.61" cy="196.06" r="3.47"/>
      <circle class="cls-1" cx="111.93" cy="196.06" r="3.76"/>
      <circle class="cls-1" cx="130.26" cy="196.06" r="4.06"/>
      <circle class="cls-1" cx="148.58" cy="196.06" r="4.35"/>
      <circle class="cls-1" cx="166.9" cy="196.06" r="4.65"/>
      <circle class="cls-1" cx="185.22" cy="196.06" r="4.94"/>
      <circle class="cls-1" cx="203.54" cy="196.06" r="5.24"/>
      <circle class="cls-1" cx="221.86" cy="196.06" r="5.53"/>
      <circle class="cls-1" cx="240.19" cy="196.06" r="5.82"/>
      <circle class="cls-1" cx="258.51" cy="196.06" r="6.12"/>
      <circle class="cls-1" cx="276.83" cy="196.06" r="6.41"/>
      <circle class="cls-1" cx="295.15" cy="196.06" r="6.71"/>
      <circle class="cls-1" cx="313.47" cy="196.06" r="7"/>
    </g>
    <g>
      <circle class="cls-1" cx="2" cy="213.88" r="2"/>
      <circle class="cls-1" cx="20.32" cy="213.88" r="2.29"/>
      <circle class="cls-1" cx="38.65" cy="213.88" r="2.59"/>
      <circle class="cls-1" cx="56.97" cy="213.88" r="2.88"/>
      <circle class="cls-1" cx="75.29" cy="213.88" r="3.18"/>
      <circle class="cls-1" cx="93.61" cy="213.88" r="3.47"/>
      <circle class="cls-1" cx="111.93" cy="213.88" r="3.76"/>
      <circle class="cls-1" cx="130.26" cy="213.88" r="4.06"/>
      <circle class="cls-1" cx="148.58" cy="213.88" r="4.35"/>
      <circle class="cls-1" cx="166.9" cy="213.88" r="4.65"/>
      <circle class="cls-1" cx="185.22" cy="213.88" r="4.94"/>
      <circle class="cls-1" cx="203.54" cy="213.88" r="5.24"/>
      <circle class="cls-1" cx="221.86" cy="213.88" r="5.53"/>
      <circle class="cls-1" cx="240.19" cy="213.88" r="5.82"/>
      <circle class="cls-1" cx="258.51" cy="213.88" r="6.12"/>
      <circle class="cls-1" cx="276.83" cy="213.88" r="6.41"/>
      <circle class="cls-1" cx="295.15" cy="213.88" r="6.71"/>
      <circle class="cls-1" cx="313.47" cy="213.88" r="7"/>
    </g>
    <g>
      <circle class="cls-1" cx="2" cy="231.7" r="2"/>
      <circle class="cls-1" cx="20.32" cy="231.7" r="2.29"/>
      <circle class="cls-1" cx="38.65" cy="231.7" r="2.59"/>
      <circle class="cls-1" cx="56.97" cy="231.7" r="2.88"/>
      <circle class="cls-1" cx="75.29" cy="231.7" r="3.18"/>
      <circle class="cls-1" cx="93.61" cy="231.7" r="3.47"/>
      <circle class="cls-1" cx="111.93" cy="231.7" r="3.76"/>
      <circle class="cls-1" cx="130.26" cy="231.7" r="4.06"/>
      <circle class="cls-1" cx="148.58" cy="231.7" r="4.35"/>
      <circle class="cls-1" cx="166.9" cy="231.7" r="4.65"/>
      <circle class="cls-1" cx="185.22" cy="231.7" r="4.94"/>
      <circle class="cls-1" cx="203.54" cy="231.7" r="5.24"/>
      <circle class="cls-1" cx="221.86" cy="231.7" r="5.53"/>
      <circle class="cls-1" cx="240.19" cy="231.7" r="5.82"/>
      <circle class="cls-1" cx="258.51" cy="231.7" r="6.12"/>
      <circle class="cls-1" cx="276.83" cy="231.7" r="6.41"/>
      <circle class="cls-1" cx="295.15" cy="231.7" r="6.71"/>
      <circle class="cls-1" cx="313.47" cy="231.7" r="7"/>
    </g>
    <g>
      <circle class="cls-1" cx="2" cy="249.53" r="2"/>
      <circle class="cls-1" cx="20.32" cy="249.53" r="2.29"/>
      <circle class="cls-1" cx="38.65" cy="249.53" r="2.59"/>
      <circle class="cls-1" cx="56.97" cy="249.53" r="2.88"/>
      <circle class="cls-1" cx="75.29" cy="249.53" r="3.18"/>
      <circle class="cls-1" cx="93.61" cy="249.53" r="3.47"/>
      <circle class="cls-1" cx="111.93" cy="249.53" r="3.76"/>
      <circle class="cls-1" cx="130.26" cy="249.53" r="4.06"/>
      <circle class="cls-1" cx="148.58" cy="249.53" r="4.35"/>
      <circle class="cls-1" cx="166.9" cy="249.53" r="4.65"/>
      <circle class="cls-1" cx="185.22" cy="249.53" r="4.94"/>
      <circle class="cls-1" cx="203.54" cy="249.53" r="5.24"/>
      <circle class="cls-1" cx="221.86" cy="249.53" r="5.53"/>
      <circle class="cls-1" cx="240.19" cy="249.53" r="5.82"/>
      <circle class="cls-1" cx="258.51" cy="249.53" r="6.12"/>
      <circle class="cls-1" cx="276.83" cy="249.53" r="6.41"/>
      <circle class="cls-1" cx="295.15" cy="249.53" r="6.71"/>
      <circle class="cls-1" cx="313.47" cy="249.53" r="7"/>
    </g>
    <g>
      <circle class="cls-1" cx="2" cy="267.35" r="2"/>
      <circle class="cls-1" cx="20.32" cy="267.35" r="2.29"/>
      <circle class="cls-1" cx="38.65" cy="267.35" r="2.59"/>
      <circle class="cls-1" cx="56.97" cy="267.35" r="2.88"/>
      <circle class="cls-1" cx="75.29" cy="267.35" r="3.18"/>
      <circle class="cls-1" cx="93.61" cy="267.35" r="3.47"/>
      <circle class="cls-1" cx="111.93" cy="267.35" r="3.76"/>
      <circle class="cls-1" cx="130.26" cy="267.35" r="4.06"/>
      <circle class="cls-1" cx="148.58" cy="267.35" r="4.35"/>
      <circle class="cls-1" cx="166.9" cy="267.35" r="4.65"/>
      <circle class="cls-1" cx="185.22" cy="267.35" r="4.94"/>
      <circle class="cls-1" cx="203.54" cy="267.35" r="5.24"/>
      <circle class="cls-1" cx="221.86" cy="267.35" r="5.53"/>
      <circle class="cls-1" cx="240.19" cy="267.35" r="5.82"/>
      <circle class="cls-1" cx="258.51" cy="267.35" r="6.12"/>
      <circle class="cls-1" cx="276.83" cy="267.35" r="6.41"/>
      <circle class="cls-1" cx="295.15" cy="267.35" r="6.71"/>
      <circle class="cls-1" cx="313.47" cy="267.35" r="7"/>
    </g>
    <g>
      <circle class="cls-1" cx="2" cy="285.17" r="2"/>
      <circle class="cls-1" cx="20.32" cy="285.17" r="2.29"/>
      <circle class="cls-1" cx="38.65" cy="285.17" r="2.59"/>
      <circle class="cls-1" cx="56.97" cy="285.17" r="2.88"/>
      <circle class="cls-1" cx="75.29" cy="285.17" r="3.18"/>
      <circle class="cls-1" cx="93.61" cy="285.17" r="3.47"/>
      <circle class="cls-1" cx="111.93" cy="285.17" r="3.76"/>
      <circle class="cls-1" cx="130.26" cy="285.17" r="4.06"/>
      <circle class="cls-1" cx="148.58" cy="285.17" r="4.35"/>
      <circle class="cls-1" cx="166.9" cy="285.17" r="4.65"/>
      <circle class="cls-1" cx="185.22" cy="285.17" r="4.94"/>
      <circle class="cls-1" cx="203.54" cy="285.17" r="5.24"/>
      <circle class="cls-1" cx="221.86" cy="285.17" r="5.53"/>
      <circle class="cls-1" cx="240.19" cy="285.17" r="5.82"/>
      <circle class="cls-1" cx="258.51" cy="285.17" r="6.12"/>
      <circle class="cls-1" cx="276.83" cy="285.17" r="6.41"/>
      <circle class="cls-1" cx="295.15" cy="285.17" r="6.71"/>
      <circle class="cls-1" cx="313.47" cy="285.17" r="7"/>
    </g>
    <g>
      <path class="cls-1" d="m4,303H0c0-1.11.9-2,2-2s2,.89,2,2Z"/>
      <path class="cls-1" d="m22.62,303h-4.59c0-1.27,1.03-2.3,2.29-2.3s2.3,1.03,2.3,2.3Z"/>
      <path class="cls-1" d="m41.23,303h-5.17c0-1.43,1.16-2.59,2.59-2.59s2.58,1.16,2.58,2.59Z"/>
      <path class="cls-1" d="m59.85,303h-5.76c0-1.59,1.29-2.88,2.88-2.88s2.88,1.29,2.88,2.88Z"/>
      <path class="cls-1" d="m78.47,303h-6.36c0-1.76,1.43-3.18,3.18-3.18s3.18,1.42,3.18,3.18Z"/>
      <path class="cls-1" d="m97.08,303h-6.94c0-1.92,1.56-3.47,3.47-3.47s3.47,1.55,3.47,3.47Z"/>
      <path class="cls-1" d="m115.7,303h-7.53c0-2.08,1.68-3.77,3.76-3.77s3.77,1.69,3.77,3.77Z"/>
      <path class="cls-1" d="m134.31,303h-8.11c0-2.24,1.81-4.06,4.06-4.06s4.05,1.82,4.05,4.06Z"/>
      <path class="cls-1" d="m152.93,303h-8.71c0-2.41,1.95-4.35,4.36-4.35s4.35,1.94,4.35,4.35Z"/>
      <path class="cls-1" d="m171.55,303h-9.3c0-2.57,2.08-4.65,4.65-4.65s4.65,2.08,4.65,4.65Z"/>
      <path class="cls-1" d="m190.16,303h-9.88c0-2.73,2.21-4.94,4.94-4.94s4.94,2.21,4.94,4.94Z"/>
      <path class="cls-1" d="m208.78,303h-10.47c0-2.89,2.34-5.24,5.23-5.24s5.24,2.35,5.24,5.24Z"/>
      <path class="cls-1" d="m227.39,303h-11.05c0-3.06,2.47-5.53,5.52-5.53s5.53,2.47,5.53,5.53Z"/>
      <path class="cls-1" d="m246.01,303h-11.65c0-3.22,2.61-5.83,5.83-5.83s5.82,2.61,5.82,5.83Z"/>
      <path class="cls-1" d="m264.63,303h-12.24c0-3.38,2.74-6.12,6.12-6.12s6.12,2.74,6.12,6.12Z"/>
      <path class="cls-1" d="m283.24,303h-12.82c0-3.54,2.87-6.41,6.41-6.41s6.41,2.87,6.41,6.41Z"/>
      <path class="cls-1" d="m301.86,303h-13.41c0-3.71,3-6.71,6.7-6.71s6.71,3,6.71,6.71Z"/>
      <path class="cls-1" d="m320.47,303h-14c0-3.87,3.14-7,7-7s7,3.13,7,7Z"/>
    </g>
  </g>
</svg>